<svg width="3616" height="1204" viewBox="0 0 3616 1204" fill="none" xmlns="http://www.w3.org/2000/svg">
<path d="M781.658 69.8629C781.658 31.2787 812.937 0 851.521 0H1410.49C1449.08 0 1480.35 31.2787 1480.35 69.8629V279.452C1480.35 318.036 1449.08 349.314 1410.49 349.314H851.521C812.937 349.314 781.658 318.036 781.658 279.452V69.8629Z" fill="white"/>
<path d="M1480.35 707.797V498.097C1480.35 459.556 1449.14 428.296 1410.6 428.234L851.665 427.349C813.038 427.288 781.692 458.584 781.692 497.212L781.691 1134C781.691 1172.58 812.97 1203.86 851.554 1203.86H1410.49C1449.08 1203.86 1480.35 1172.58 1480.35 1134V924.407C1480.35 885.823 1449.08 854.544 1410.49 854.544H1169.45C1148.22 854.544 1131.01 837.333 1131.01 816.102C1131.01 794.871 1148.22 777.659 1169.45 777.659H1410.49C1449.08 777.659 1480.35 746.381 1480.35 707.797Z" fill="white"/>
<path d="M0 1133.64V70.0234C0 31.4392 31.2787 0.160543 69.8629 0.160543H279.528C318.113 0.160543 349.391 31.4392 349.391 70.0234V787.732C349.391 826.316 380.67 857.595 419.254 857.595H627.953C666.537 857.595 697.816 888.873 697.816 927.458V1133.64C697.816 1172.22 666.537 1203.5 627.953 1203.5H69.8629C31.2787 1203.5 0 1172.22 0 1133.64Z" fill="white"/>
<path d="M1555.73 71.2903V280.827C1555.73 319.403 1587 350.678 1625.57 350.689L2040.56 350.809C2079.13 350.82 2110.4 382.095 2110.4 420.672V474.526C2110.4 498.286 2098.32 520.418 2078.34 533.276L1587.79 848.947C1567.81 861.805 1555.73 883.936 1555.73 907.697L1555.73 1133.64C1555.73 1172.22 1587.01 1203.5 1625.59 1203.5H1837.71C1876.29 1203.5 1907.57 1172.22 1907.57 1133.64V1115.92C1907.57 1045.51 1999.94 1019.32 2036.9 1079.24L2093.07 1170.32C2105.8 1190.94 2128.3 1203.5 2152.53 1203.5H2387.18C2438.91 1203.5 2472.7 1149.23 2449.87 1102.81L2340.55 880.512C2326.23 851.384 2333.85 816.226 2358.96 795.65L2433.87 734.248C2450.06 720.979 2459.45 701.149 2459.45 680.216V71.2903C2459.45 32.7061 2428.17 1.4274 2389.59 1.4274H1625.59C1587.01 1.4274 1555.73 32.7061 1555.73 71.2903Z" fill="white"/>
<path d="M2644.62 1203.86H2854.21C2892.8 1203.86 2924.08 1172.58 2924.08 1134V1113.28C2924.08 1074.7 2955.35 1043.42 2993.94 1043.42H3095.17C3382.58 1043.42 3615.58 810.422 3615.58 523.009C3615.58 235.595 3382.58 2.6003 3095.17 2.6003H2644.62C2606.04 2.6003 2574.76 33.8789 2574.76 72.4631V1134C2574.76 1172.58 2606.04 1203.86 2644.62 1203.86Z" fill="white"/>
<path d="M2926.61 604.786C2926.25 666.452 2826.31 681.252 2792.68 679.42C3044.8 805.8 3159.39 670.731 3246.2 622.342C3300.61 592.01 3364.38 666.52 3379.7 699.22C3366.4 421.29 3190.79 389.214 3104.15 339.285C3049.89 308.018 3084.64 215.962 3104.73 189.033C2860.33 345.914 2927.19 506.408 2926.61 604.786Z" fill="black"/>
</svg>
